<svg xmlns="http://www.w3.org/2000/svg" xmlns:xlink="http://www.w3.org/1999/xlink" width="40" zoomAndPan="magnify" viewBox="0 0 30 30.000001" height="40" preserveAspectRatio="xMidYMid meet" version="1.2"><defs><clipPath id="1842dd14cc"><path d="M 3 2.511719 L 26.925781 2.511719 L 26.925781 26.464844 L 3 26.464844 Z M 3 2.511719 "/></clipPath></defs><g id="71cbe4bbbd"><g clip-rule="nonzero" clip-path="url(#1842dd14cc)"><path style=" stroke:none;fill-rule:nonzero;fill:#ffffff;fill-opacity:1;" d="M 26.765625 25.734375 C 26.921875 25.890625 26.921875 26.144531 26.765625 26.296875 C 26.6875 26.375 26.585938 26.414062 26.484375 26.414062 C 26.382812 26.414062 26.28125 26.375 26.203125 26.296875 L 14.949219 15.046875 L 3.695312 26.296875 C 3.617188 26.375 3.515625 26.414062 3.414062 26.414062 C 3.3125 26.414062 3.210938 26.375 3.132812 26.296875 C 2.976562 26.144531 2.976562 25.890625 3.132812 25.734375 L 14.386719 14.480469 L 3.132812 3.230469 C 2.976562 3.074219 2.976562 2.820312 3.132812 2.664062 C 3.289062 2.511719 3.539062 2.511719 3.695312 2.664062 L 14.949219 13.917969 L 26.203125 2.664062 C 26.355469 2.511719 26.609375 2.511719 26.765625 2.664062 C 26.921875 2.820312 26.921875 3.074219 26.765625 3.230469 L 15.511719 14.480469 Z M 26.765625 25.734375 "/></g></g></svg>