<svg xmlns="http://www.w3.org/2000/svg" xmlns:xlink="http://www.w3.org/1999/xlink" width="500" zoomAndPan="magnify" viewBox="0 0 375 374.999991" height="500" preserveAspectRatio="xMidYMid meet" version="1.2"><defs><clipPath id="4b78dff60e"><path d="M 112.5 112.636719 L 262.5 112.636719 L 262.5 262.636719 L 112.5 262.636719 Z M 112.5 112.636719 "/></clipPath></defs><g id="9ded2c9df3"><g clip-rule="nonzero" clip-path="url(#4b78dff60e)"><path style=" stroke:none;fill-rule:nonzero;fill:#d9d9d9;fill-opacity:1;" d="M 261.492188 258.078125 C 262.464844 259.050781 262.464844 260.628906 261.492188 261.605469 C 261.003906 262.089844 260.367188 262.335938 259.730469 262.335938 C 259.089844 262.335938 258.453125 262.089844 257.964844 261.605469 L 187.488281 191.128906 L 117.011719 261.605469 C 116.527344 262.089844 115.886719 262.335938 115.25 262.335938 C 114.613281 262.335938 113.972656 262.089844 113.488281 261.605469 C 112.511719 260.628906 112.511719 259.050781 113.488281 258.078125 L 183.964844 187.601562 L 113.488281 117.125 C 112.511719 116.152344 112.511719 114.574219 113.488281 113.597656 C 114.460938 112.625 116.039062 112.625 117.011719 113.597656 L 187.488281 184.074219 L 257.964844 113.597656 C 258.941406 112.625 260.519531 112.625 261.492188 113.597656 C 262.464844 114.574219 262.464844 116.152344 261.492188 117.125 L 191.015625 187.601562 Z M 261.492188 258.078125 "/></g></g></svg>