<svg xmlns="http://www.w3.org/2000/svg" xmlns:xlink="http://www.w3.org/1999/xlink" width="70" zoomAndPan="magnify" viewBox="0 0 52.5 52.499999" height="70" preserveAspectRatio="xMidYMid meet" version="1.2"><defs><clipPath id="4aa1842cd5"><path d="M 5.199219 6 L 46.804688 6 L 46.804688 49.644531 L 5.199219 49.644531 Z M 5.199219 6 "/></clipPath><clipPath id="988ad5dc1d"><path d="M 14 2.097656 L 16 2.097656 L 16 12 L 14 12 Z M 14 2.097656 "/></clipPath><clipPath id="0f83e05074"><path d="M 36 2.097656 L 38 2.097656 L 38 12 L 36 12 Z M 36 2.097656 "/></clipPath><clipPath id="a4065e53f0"><path d="M 5.199219 13 L 46.804688 13 L 46.804688 15 L 5.199219 15 Z M 5.199219 13 "/></clipPath></defs><g id="2aa1845707"><g clip-rule="nonzero" clip-path="url(#4aa1842cd5)"><path style=" stroke:none;fill-rule:nonzero;fill:#4e7028;fill-opacity:1;" d="M 43.027344 49.644531 L 8.976562 49.644531 C 6.863281 49.644531 5.210938 47.3125 5.210938 44.339844 L 5.210938 11.605469 C 5.210938 8.628906 6.863281 6.300781 8.976562 6.300781 L 13.113281 6.300781 C 13.484375 6.300781 13.785156 6.597656 13.785156 6.96875 C 13.785156 7.339844 13.484375 7.640625 13.113281 7.640625 L 8.976562 7.640625 C 7.664062 7.640625 6.554688 9.457031 6.554688 11.605469 L 6.554688 44.339844 C 6.554688 46.488281 7.664062 48.304688 8.976562 48.304688 L 43.027344 48.304688 C 44.339844 48.304688 45.449219 46.488281 45.449219 44.339844 L 45.449219 11.605469 C 45.449219 9.457031 44.339844 7.640625 43.027344 7.640625 L 38.824219 7.640625 C 38.453125 7.640625 38.152344 7.339844 38.152344 6.96875 C 38.152344 6.597656 38.453125 6.300781 38.824219 6.300781 L 43.027344 6.300781 C 45.140625 6.300781 46.796875 8.628906 46.796875 11.605469 L 46.796875 44.339844 C 46.796875 47.3125 45.140625 49.644531 43.027344 49.644531 "/></g><path style=" stroke:none;fill-rule:nonzero;fill:#4e7028;fill-opacity:1;" d="M 34.601562 7.640625 L 17.085938 7.640625 C 16.714844 7.640625 16.414062 7.339844 16.414062 6.96875 C 16.414062 6.597656 16.714844 6.300781 17.085938 6.300781 L 34.601562 6.300781 C 34.972656 6.300781 35.273438 6.597656 35.273438 6.96875 C 35.273438 7.339844 34.972656 7.640625 34.601562 7.640625 "/><g clip-rule="nonzero" clip-path="url(#988ad5dc1d)"><path style=" stroke:none;fill-rule:nonzero;fill:#4e7028;fill-opacity:1;" d="M 15.128906 11.636719 C 14.753906 11.636719 14.453125 11.335938 14.453125 10.964844 L 14.453125 2.765625 C 14.453125 2.398438 14.753906 2.097656 15.128906 2.097656 C 15.5 2.097656 15.800781 2.398438 15.800781 2.765625 L 15.800781 10.964844 C 15.800781 11.335938 15.5 11.636719 15.128906 11.636719 "/></g><g clip-rule="nonzero" clip-path="url(#0f83e05074)"><path style=" stroke:none;fill-rule:nonzero;fill:#4e7028;fill-opacity:1;" d="M 36.878906 11.636719 C 36.503906 11.636719 36.203125 11.335938 36.203125 10.964844 L 36.203125 2.765625 C 36.203125 2.398438 36.503906 2.097656 36.878906 2.097656 C 37.25 2.097656 37.550781 2.398438 37.550781 2.765625 L 37.550781 10.964844 C 37.550781 11.335938 37.25 11.636719 36.878906 11.636719 "/></g><g clip-rule="nonzero" clip-path="url(#a4065e53f0)"><path style=" stroke:none;fill-rule:nonzero;fill:#4e7028;fill-opacity:1;" d="M 46.121094 14.660156 L 5.882812 14.660156 C 5.511719 14.660156 5.210938 14.359375 5.210938 13.992188 C 5.210938 13.621094 5.511719 13.320312 5.882812 13.320312 L 46.121094 13.320312 C 46.496094 13.320312 46.796875 13.621094 46.796875 13.992188 C 46.796875 14.359375 46.496094 14.660156 46.121094 14.660156 "/></g><path style=" stroke:none;fill-rule:nonzero;fill:#4e7028;fill-opacity:1;" d="M 41.214844 23.035156 L 20.984375 23.035156 C 20.613281 23.035156 20.308594 22.734375 20.308594 22.363281 C 20.308594 21.992188 20.613281 21.695312 20.984375 21.695312 L 41.214844 21.695312 C 41.589844 21.695312 41.890625 21.992188 41.890625 22.363281 C 41.890625 22.734375 41.589844 23.035156 41.214844 23.035156 "/><path style=" stroke:none;fill-rule:nonzero;fill:#4e7028;fill-opacity:1;" d="M 41.214844 32.835938 L 20.984375 32.835938 C 20.613281 32.835938 20.308594 32.535156 20.308594 32.164062 C 20.308594 31.796875 20.613281 31.496094 20.984375 31.496094 L 41.214844 31.496094 C 41.589844 31.496094 41.890625 31.796875 41.890625 32.164062 C 41.890625 32.535156 41.589844 32.835938 41.214844 32.835938 "/><path style=" stroke:none;fill-rule:nonzero;fill:#4e7028;fill-opacity:1;" d="M 41.214844 42.636719 L 20.984375 42.636719 C 20.613281 42.636719 20.308594 42.339844 20.308594 41.96875 C 20.308594 41.597656 20.613281 41.296875 20.984375 41.296875 L 41.214844 41.296875 C 41.589844 41.296875 41.890625 41.597656 41.890625 41.96875 C 41.890625 42.339844 41.589844 42.636719 41.214844 42.636719 "/><path style=" stroke:none;fill-rule:nonzero;fill:#4e7028;fill-opacity:1;" d="M 13.550781 24.871094 C 13.367188 24.871094 13.179688 24.792969 13.046875 24.644531 L 10.285156 21.535156 C 10.039062 21.257812 10.0625 20.835938 10.34375 20.589844 C 10.621094 20.347656 11.046875 20.371094 11.292969 20.648438 L 14.054688 23.757812 C 14.300781 24.035156 14.277344 24.457031 13.996094 24.703125 C 13.871094 24.816406 13.710938 24.871094 13.550781 24.871094 "/><path style=" stroke:none;fill-rule:nonzero;fill:#4e7028;fill-opacity:1;" d="M 13.550781 24.871094 C 13.421875 24.871094 13.292969 24.835938 13.179688 24.757812 C 12.867188 24.554688 12.785156 24.140625 12.988281 23.832031 L 17.335938 17.332031 C 17.539062 17.023438 17.957031 16.9375 18.269531 17.144531 C 18.578125 17.347656 18.660156 17.765625 18.457031 18.074219 L 14.113281 24.574219 C 13.980469 24.765625 13.769531 24.871094 13.550781 24.871094 "/><path style=" stroke:none;fill-rule:nonzero;fill:#4e7028;fill-opacity:1;" d="M 13.550781 35.53125 C 13.367188 35.53125 13.179688 35.457031 13.046875 35.304688 L 10.285156 32.199219 C 10.039062 31.921875 10.0625 31.496094 10.34375 31.253906 C 10.621094 31.007812 11.046875 31.035156 11.292969 31.3125 L 14.054688 34.417969 C 14.300781 34.695312 14.277344 35.117188 13.996094 35.363281 C 13.871094 35.476562 13.710938 35.53125 13.550781 35.53125 "/><path style=" stroke:none;fill-rule:nonzero;fill:#4e7028;fill-opacity:1;" d="M 13.550781 35.53125 C 13.421875 35.53125 13.292969 35.496094 13.179688 35.421875 C 12.867188 35.214844 12.785156 34.800781 12.992188 34.492188 L 17.335938 27.992188 C 17.539062 27.683594 17.957031 27.601562 18.269531 27.804688 C 18.578125 28.011719 18.660156 28.425781 18.457031 28.734375 L 14.113281 35.234375 C 13.980469 35.425781 13.769531 35.53125 13.550781 35.53125 "/><path style=" stroke:none;fill-rule:nonzero;fill:#4e7028;fill-opacity:1;" d="M 13.550781 45.359375 C 13.367188 45.359375 13.179688 45.285156 13.046875 45.132812 L 10.285156 42.023438 C 10.039062 41.75 10.0625 41.324219 10.34375 41.078125 C 10.621094 40.835938 11.046875 40.859375 11.292969 41.136719 L 14.054688 44.246094 C 14.300781 44.523438 14.277344 44.945312 13.996094 45.191406 C 13.871094 45.304688 13.710938 45.359375 13.550781 45.359375 "/><path style=" stroke:none;fill-rule:nonzero;fill:#4e7028;fill-opacity:1;" d="M 13.550781 45.359375 C 13.421875 45.359375 13.292969 45.324219 13.179688 45.246094 C 12.867188 45.042969 12.785156 44.628906 12.988281 44.320312 L 17.335938 37.820312 C 17.539062 37.511719 17.957031 37.425781 18.269531 37.632812 C 18.578125 37.835938 18.660156 38.253906 18.457031 38.5625 L 14.113281 45.0625 C 13.980469 45.253906 13.769531 45.359375 13.550781 45.359375 "/></g></svg>