<svg xmlns="http://www.w3.org/2000/svg" xmlns:xlink="http://www.w3.org/1999/xlink" width="70" zoomAndPan="magnify" viewBox="0 0 52.5 33.749999" height="45" preserveAspectRatio="xMidYMid meet" version="1.2"><defs><clipPath id="58b1bcd55c"><path d="M 0 0.0351562 L 52.003906 0.0351562 L 52.003906 33.46875 L 0 33.46875 Z M 0 0.0351562 "/></clipPath><clipPath id="090f67d5d6"><path d="M 0 0.0351562 L 52 0.0351562 L 52 33.46875 L 0 33.46875 Z M 0 0.0351562 "/></clipPath></defs><g id="2562b1ece2"><g clip-rule="nonzero" clip-path="url(#58b1bcd55c)"><path style=" stroke:none;fill-rule:nonzero;fill:#ffffff;fill-opacity:1;" d="M 0 0.0351562 L 52.003906 0.0351562 L 52.003906 33.46875 L 0 33.46875 Z M 0 0.0351562 "/><path style=" stroke:none;fill-rule:nonzero;fill:#ffffff;fill-opacity:1;" d="M 0 0.0351562 L 52.003906 0.0351562 L 52.003906 33.46875 L 0 33.46875 Z M 0 0.0351562 "/></g><g clip-rule="nonzero" clip-path="url(#090f67d5d6)"><path style=" stroke:none;fill-rule:nonzero;fill:#000000;fill-opacity:1;" d="M 0.0234375 34.953125 L 51.980469 34.953125 L 51.980469 29.132812 L 0.0234375 29.132812 Z M 0.0234375 20.402344 L 51.980469 20.402344 L 51.980469 14.585938 L 0.0234375 14.585938 Z M 0.0234375 0.0351562 L 0.0234375 5.855469 L 51.980469 5.855469 L 51.980469 0.0351562 Z M 0.0234375 0.0351562 "/></g></g></svg>