<svg xmlns="http://www.w3.org/2000/svg" xmlns:xlink="http://www.w3.org/1999/xlink" width="70" zoomAndPan="magnify" viewBox="0 0 52.5 30.000001" height="40" preserveAspectRatio="xMidYMid meet" version="1.2"><defs><clipPath id="bde0285809"><path d="M 0.605469 0 L 51.410156 0 L 51.410156 29.03125 L 0.605469 29.03125 Z M 0.605469 0 "/></clipPath><clipPath id="17fe37becf"><path d="M 6 1.199219 L 45.914062 1.199219 L 45.914062 28.054688 L 6 28.054688 Z M 6 1.199219 "/></clipPath></defs><g id="eb9508abd5"><g clip-rule="nonzero" clip-path="url(#bde0285809)"><path style=" stroke:none;fill-rule:nonzero;fill:#ffffff;fill-opacity:1;" d="M 0.605469 0 L 51.410156 0 L 51.410156 29.03125 L 0.605469 29.03125 Z M 0.605469 0 "/><path style=" stroke:none;fill-rule:nonzero;fill:#ffffff;fill-opacity:1;" d="M 0.605469 0 L 51.410156 0 L 51.410156 29.03125 L 0.605469 29.03125 Z M 0.605469 0 "/></g><g clip-rule="nonzero" clip-path="url(#17fe37becf)"><path style=" stroke:none;fill-rule:nonzero;fill:#000000;fill-opacity:1;" d="M 37.023438 11.269531 L 37.023438 3.4375 C 37.023438 2.207031 36.027344 1.199219 34.808594 1.199219 L 8.25 1.199219 C 7.03125 1.199219 6.035156 2.207031 6.035156 3.4375 L 6.035156 25.816406 C 6.035156 27.046875 7.03125 28.054688 8.25 28.054688 L 34.808594 28.054688 C 36.027344 28.054688 37.023438 27.046875 37.023438 25.816406 L 37.023438 17.984375 L 45.875 26.933594 L 45.875 2.316406 Z M 37.023438 11.269531 "/></g></g></svg>